<svg width="26" height="26" viewBox="0 0 26 26" fill="none" xmlns="http://www.w3.org/2000/svg">
<g clip-path="url(#clip0_1617_770)">
<path d="M1.94482 22.5232C1.94482 23.3875 2.64307 24.0857 3.50732 24.0857H22.2573C23.1216 24.0857 23.8198 23.3875 23.8198 22.5232V8.46069H1.94482V22.5232ZM9.75732 12.1716C9.75732 11.8494 10.021 11.5857 10.3433 11.5857H15.4214C15.7437 11.5857 16.0073 11.8494 16.0073 12.1716V12.5623C16.0073 12.8845 15.7437 13.1482 15.4214 13.1482H10.3433C10.021 13.1482 9.75732 12.8845 9.75732 12.5623V12.1716ZM23.8198 2.21069H1.94482C1.08057 2.21069 0.382324 2.90894 0.382324 3.77319V6.11694C0.382324 6.54663 0.733887 6.89819 1.16357 6.89819H24.6011C25.0308 6.89819 25.3823 6.54663 25.3823 6.11694V3.77319C25.3823 2.90894 24.6841 2.21069 23.8198 2.21069Z" fill="#29166F"/>
</g>
<defs>
<clipPath id="clip0_1617_770">
<rect width="25" height="25" fill="white" transform="translate(0.382324 0.648193)"/>
</clipPath>
</defs>
</svg>
