<svg width="26" height="20" viewBox="0 0 26 20" fill="none" xmlns="http://www.w3.org/2000/svg">
<path d="M0.816162 17.4344C0.816162 18.5845 1.74932 19.5177 2.8995 19.5177H23.7328C24.883 19.5177 25.8162 18.5845 25.8162 17.4344V9.79546H0.816162V17.4344ZM9.1495 14.483C9.1495 14.1965 9.38387 13.9621 9.67033 13.9621H15.5731C15.8596 13.9621 16.0939 14.1965 16.0939 14.483V16.2191C16.0939 16.5055 15.8596 16.7399 15.5731 16.7399H9.67033C9.38387 16.7399 9.1495 16.5055 9.1495 16.2191V14.483ZM3.59394 14.483C3.59394 14.1965 3.82831 13.9621 4.11477 13.9621H7.23977C7.52623 13.9621 7.76061 14.1965 7.76061 14.483V16.2191C7.76061 16.5055 7.52623 16.7399 7.23977 16.7399H4.11477C3.82831 16.7399 3.59394 16.5055 3.59394 16.2191V14.483ZM25.8162 2.15658V4.23991H0.816162V2.15658C0.816162 1.0064 1.74932 0.0732422 2.8995 0.0732422H23.7328C24.883 0.0732422 25.8162 1.0064 25.8162 2.15658Z" fill="#29166F"/>
</svg>
