<svg width="26" height="26" viewBox="0 0 26 26" fill="none" xmlns="http://www.w3.org/2000/svg">
<g clip-path="url(#clip0_1617_868)">
<path d="M13.3162 25.4399C15.0408 25.4399 16.4397 24.041 16.4397 22.3149H10.1927C10.1927 24.041 11.5916 25.4399 13.3162 25.4399ZM23.8333 18.1299C22.8899 17.1162 21.1248 15.5913 21.1248 10.5962C21.1248 6.80225 18.4646 3.76514 14.8777 3.02002V2.00244C14.8777 1.13965 14.1785 0.439941 13.3162 0.439941C12.4539 0.439941 11.7547 1.13965 11.7547 2.00244V3.02002C8.16776 3.76514 5.5076 6.80225 5.5076 10.5962C5.5076 15.5913 3.74247 17.1162 2.79911 18.1299C2.50614 18.4448 2.37625 18.8213 2.3787 19.1899C2.38407 19.9907 3.01248 20.7524 3.94608 20.7524H22.6863C23.6199 20.7524 24.2488 19.9907 24.2537 19.1899C24.2561 18.8213 24.1263 18.4443 23.8333 18.1299Z" fill="#29166F"/>
</g>
<defs>
<clipPath id="clip0_1617_868">
<rect width="25" height="25" fill="white" transform="translate(0.816162 0.439941)"/>
</clipPath>
</defs>
</svg>
