<svg width="26" height="26" viewBox="0 0 26 26" fill="none" xmlns="http://www.w3.org/2000/svg">
<g clip-path="url(#clip0_1617_864)">
<path d="M21.7754 19.6371C21.7754 19.9322 21.5757 20.1449 21.2893 20.1449C20.9941 20.1449 20.8031 19.9192 20.8031 19.6371C20.8031 19.355 20.9941 19.1293 21.2893 19.1293C21.5757 19.1293 21.7754 19.355 21.7754 19.6371ZM8.28578 19.1293C7.97762 19.1293 7.79967 19.355 7.79967 19.6371C7.79967 19.9192 7.97762 20.1449 8.28578 20.1449C8.5679 20.1449 8.75887 19.9322 8.75887 19.6371C8.75453 19.355 8.5679 19.1293 8.28578 19.1293ZM13.3856 19.1163C13.1512 19.1163 13.008 19.2682 12.9733 19.4939H13.8023C13.7632 19.2465 13.6113 19.1163 13.3856 19.1163ZM18.0644 19.1293C17.7693 19.1293 17.5913 19.355 17.5913 19.6371C17.5913 19.9192 17.7693 20.1449 18.0644 20.1449C18.3596 20.1449 18.5505 19.9322 18.5505 19.6371C18.5505 19.355 18.3596 19.1293 18.0644 19.1293ZM22.6608 20.2621C22.6608 20.2751 22.6738 20.2838 22.6738 20.3098C22.6738 20.3229 22.6608 20.3315 22.6608 20.3576C22.6478 20.3706 22.6478 20.3793 22.6391 20.3923C22.6261 20.4053 22.6174 20.414 22.5913 20.414C22.5783 20.427 22.5696 20.427 22.5436 20.427C22.5306 20.427 22.5219 20.427 22.4958 20.414C22.4828 20.414 22.4741 20.401 22.4611 20.3923C22.4481 20.3793 22.4394 20.3706 22.4394 20.3576C22.4264 20.3359 22.4264 20.3229 22.4264 20.3098C22.4264 20.2881 22.4264 20.2751 22.4394 20.2621C22.4394 20.2404 22.4524 20.2274 22.4611 20.2144C22.4741 20.2013 22.4828 20.2013 22.4958 20.1927C22.5175 20.1796 22.5306 20.1796 22.5436 20.1796C22.5653 20.1796 22.5783 20.1796 22.5913 20.1927C22.613 20.2057 22.6261 20.2057 22.6391 20.2144C22.6521 20.223 22.6478 20.2404 22.6608 20.2621ZM22.5653 20.3229C22.587 20.3229 22.587 20.3098 22.6 20.3098C22.613 20.2968 22.613 20.2881 22.613 20.2751C22.613 20.2621 22.613 20.2534 22.6 20.2404C22.587 20.2404 22.5783 20.2274 22.5523 20.2274H22.4828V20.3793H22.5175V20.3185H22.5306L22.5783 20.3793H22.613L22.5653 20.3229ZM25.8162 5.34456V20.6223C25.8162 21.7725 24.883 22.7057 23.7328 22.7057H2.8995C1.74932 22.7057 0.816162 21.7725 0.816162 20.6223V5.34456C0.816162 4.19439 1.74932 3.26123 2.8995 3.26123H23.7328C24.883 3.26123 25.8162 4.19439 25.8162 5.34456ZM3.59394 11.4036C3.59394 14.7239 6.28925 17.4149 9.60522 17.4149C10.7858 17.4149 11.9446 17.059 12.9255 16.4123C9.76147 13.8385 9.78318 8.98172 12.9255 6.40793C11.9446 5.75689 10.7858 5.40533 9.60522 5.40533C6.28925 5.40099 3.59394 8.0963 3.59394 11.4036ZM13.3162 16.1258C16.3761 13.7387 16.363 9.08588 13.3162 6.68571C10.2693 9.08588 10.2563 13.743 13.3162 16.1258ZM7.13995 19.4374C7.13995 19.0598 6.89255 18.8124 6.50193 18.7994C6.30227 18.7994 6.0896 18.8602 5.94637 19.0815C5.8422 18.9036 5.66425 18.7994 5.41686 18.7994C5.25193 18.7994 5.087 18.8602 4.95679 19.0338V18.8428H4.60088V20.4357H4.95679C4.95679 19.6154 4.84828 19.1249 5.34741 19.1249C5.79012 19.1249 5.70331 19.5677 5.70331 20.4357H6.0462C6.0462 19.6414 5.93769 19.1249 6.43682 19.1249C6.87953 19.1249 6.79272 19.559 6.79272 20.4357H7.14863V19.4374H7.13995ZM9.08873 18.8428H8.74585V19.0338C8.62866 18.8906 8.46373 18.7994 8.23804 18.7994C7.79099 18.7994 7.44811 19.1553 7.44811 19.6371C7.44811 20.1232 7.79099 20.4748 8.23804 20.4748C8.46373 20.4748 8.62866 20.3923 8.74585 20.2404V20.44H9.08873V18.8428ZM10.8465 19.9539C10.8465 19.3029 9.85262 19.598 9.85262 19.2942C9.85262 19.0468 10.3691 19.0859 10.6556 19.2465L10.7988 18.9644C10.3908 18.6996 9.48804 18.7039 9.48804 19.3203C9.48804 19.9409 10.482 19.6805 10.482 19.9713C10.482 20.2447 9.89602 20.223 9.58352 20.006L9.43161 20.2795C9.91772 20.6093 10.8465 20.5399 10.8465 19.9539ZM12.383 20.3576L12.2875 20.0624C12.1226 20.1536 11.758 20.2534 11.758 19.8845V19.164H12.3266V18.8428H11.758V18.3567H11.4021V18.8428H11.0722V19.1597H11.4021V19.8845C11.4021 20.6484 12.153 20.5095 12.383 20.3576ZM12.9603 19.776H14.1538C14.1538 19.0729 13.8327 18.7951 13.3986 18.7951C12.9386 18.7951 12.6087 19.138 12.6087 19.6328C12.6087 20.5225 13.5896 20.6701 14.0757 20.2491L13.9108 19.9887C13.5722 20.2664 13.0601 20.2404 12.9603 19.776ZM15.5254 18.8428C15.3257 18.756 15.0219 18.7647 14.8656 19.0338V18.8428H14.5097V20.4357H14.8656V19.5373C14.8656 19.0338 15.278 19.0989 15.4212 19.1727L15.5254 18.8428ZM15.9854 19.6371C15.9854 19.1423 16.4889 18.9817 16.8839 19.2725L17.0488 18.9904C16.5453 18.5954 15.6295 18.8124 15.6295 19.6414C15.6295 20.5008 16.6018 20.6744 17.0488 20.2925L16.8839 20.0104C16.4846 20.2925 15.9854 20.1232 15.9854 19.6371ZM18.8804 18.8428H18.5245V19.0338C18.1643 18.5564 17.2268 18.8255 17.2268 19.6371C17.2268 20.4704 18.199 20.7091 18.5245 20.2404V20.44H18.8804V18.8428ZM20.3431 18.8428C20.2389 18.7907 19.8656 18.717 19.6833 19.0338V18.8428H19.3405V20.4357H19.6833V19.5373C19.6833 19.0598 20.074 19.0902 20.2389 19.1727L20.3431 18.8428ZM22.0922 18.1961H21.7493V19.0338C21.3934 18.5607 20.4516 18.8124 20.4516 19.6371C20.4516 20.4791 21.4281 20.7048 21.7493 20.2404V20.44H22.0922V18.1961ZM22.4221 14.9366V15.1362H22.4568V14.9366H22.5393V14.9019H22.3396V14.9366H22.4221ZM22.7085 20.3098C22.7085 20.2881 22.7085 20.2621 22.6955 20.2404C22.6825 20.2274 22.6738 20.2057 22.6608 20.1927C22.6478 20.1796 22.6261 20.1709 22.613 20.1579C22.5913 20.1579 22.5653 20.1449 22.5436 20.1449C22.5306 20.1449 22.5089 20.1579 22.4828 20.1579C22.4611 20.1709 22.4481 20.1796 22.4351 20.1927C22.4134 20.2057 22.4004 20.2274 22.4004 20.2404C22.3873 20.2621 22.3873 20.2881 22.3873 20.3098C22.3873 20.3229 22.3873 20.3446 22.4004 20.3706C22.4004 20.3836 22.4134 20.4053 22.4351 20.4183C22.4481 20.4314 22.4568 20.44 22.4828 20.4531C22.5045 20.4661 22.5306 20.4661 22.5436 20.4661C22.5653 20.4661 22.5913 20.4661 22.613 20.4531C22.6261 20.44 22.6478 20.4314 22.6608 20.4183C22.6738 20.4053 22.6825 20.3836 22.6955 20.3706C22.7085 20.3446 22.7085 20.3229 22.7085 20.3098ZM22.8474 14.8975H22.7866L22.7172 15.0494L22.6478 14.8975H22.587V15.1319H22.6217V14.9539L22.6912 15.1058H22.7389L22.7997 14.9539V15.1319H22.8474V14.8975ZM23.0384 11.4036C23.0384 8.0963 20.3431 5.40099 17.0271 5.40099C15.8465 5.40099 14.6877 5.75689 13.7068 6.40359C16.8361 8.97738 16.8839 13.8472 13.7068 16.4079C14.6877 17.059 15.8552 17.4105 17.0271 17.4105C20.3431 17.4149 23.0384 14.7239 23.0384 11.4036Z" fill="#29166F"/>
</g>
<defs>
<clipPath id="clip0_1617_864">
<rect width="25" height="25" fill="white" transform="translate(0.816162 0.439941)"/>
</clipPath>
</defs>
</svg>
