<svg width="26" height="26" viewBox="0 0 26 26" fill="none" xmlns="http://www.w3.org/2000/svg">
<g clip-path="url(#clip0_1617_860)">
<path d="M24.6523 19.2476H3.55859V4.40381C3.55859 3.97217 3.20898 3.62256 2.77734 3.62256H1.21484C0.783203 3.62256 0.433594 3.97217 0.433594 4.40381V20.8101C0.433594 21.6729 1.1333 22.3726 1.99609 22.3726H24.6523C25.084 22.3726 25.4336 22.0229 25.4336 21.5913V20.0288C25.4336 19.5972 25.084 19.2476 24.6523 19.2476ZM23.0898 5.18506H17.3252C16.2812 5.18506 15.7583 6.44727 16.4966 7.18555L18.0786 8.76758L14.4961 12.3506L10.9136 8.76807C10.3032 8.15771 9.31396 8.15771 8.7041 8.76807L5.3501 12.1221C5.04492 12.4272 5.04492 12.9219 5.3501 13.2271L6.45459 14.3315C6.75977 14.6367 7.25439 14.6367 7.55957 14.3315L9.80859 12.082L13.3911 15.6646C14.0015 16.2749 14.9907 16.2749 15.6006 15.6646L20.2881 10.9771L21.8701 12.5591C22.6084 13.2974 23.8706 12.7744 23.8706 11.7305V5.96631C23.8711 5.53467 23.5215 5.18506 23.0898 5.18506Z" fill="#29166F"/>
</g>
<defs>
<clipPath id="clip0_1617_860">
<rect width="25" height="25" fill="white" transform="translate(0.433594 0.497559)"/>
</clipPath>
</defs>
</svg>
