<svg width="13" height="14" viewBox="0 0 13 14" fill="none" xmlns="http://www.w3.org/2000/svg">
<path d="M12.8005 6.7505C12.8005 10.2759 9.94412 13.1338 6.42062 13.1338C2.89712 13.1338 0.0407715 10.2759 0.0407715 6.7505C0.0407715 3.22508 2.89712 0.367188 6.42062 0.367188C9.94412 0.367188 12.8005 3.22508 12.8005 6.7505ZM5.68267 10.1304L10.4161 5.3944C10.5768 5.23359 10.5768 4.97282 10.4161 4.812L9.83402 4.2296C9.67329 4.06876 9.41266 4.06876 9.25191 4.2296L5.39161 8.09197L3.58933 6.28871C3.4286 6.12789 3.16798 6.12789 3.00722 6.28871L2.42514 6.87111C2.26441 7.03193 2.26441 7.29269 2.42514 7.45351L5.10056 10.1304C5.26131 10.2912 5.52191 10.2912 5.68267 10.1304Z" fill="white"/>
</svg>
