<svg width="76" height="76" viewBox="0 0 76 76" fill="none" xmlns="http://www.w3.org/2000/svg">
<path d="M4.79188 49.0421L17.9842 62.2344C19.7657 64.0154 22.1817 65.0159 24.7007 65.0159C27.2198 65.0159 29.6357 64.0154 31.4172 62.2344L72.1595 21.4921C72.7364 20.8948 73.0556 20.0949 73.0483 19.2646C73.0411 18.4343 72.7081 17.6401 72.121 17.053C71.5338 16.4659 70.7396 16.1328 69.9093 16.1256C69.079 16.1184 68.2791 16.4376 67.6819 17.0144L26.9395 57.7567C26.3457 58.3504 25.5404 58.6839 24.7007 58.6839C23.861 58.6839 23.0557 58.3504 22.4619 57.7567L9.26954 44.5644C8.6723 43.9876 7.87239 43.6684 7.0421 43.6756C6.21181 43.6828 5.41758 44.0159 4.83045 44.603C4.24332 45.1901 3.91029 45.9844 3.90307 46.8146C3.89586 47.6449 4.21504 48.4448 4.79188 49.0421Z" fill="#EF0000"/>
</svg>
