<svg width="26" height="25" viewBox="0 0 26 25" fill="none" xmlns="http://www.w3.org/2000/svg">
<path d="M16.4997 11.3965L11.2262 9.85352C10.6159 9.67773 10.1911 9.10645 10.1911 8.47168C10.1911 7.67578 10.8356 7.03125 11.6315 7.03125H14.8688C15.4645 7.03125 16.0505 7.21191 16.5387 7.54395C16.8366 7.74414 17.237 7.69531 17.4909 7.44629L19.1901 5.78613C19.5368 5.44922 19.488 4.8877 19.1022 4.58984C17.9059 3.65234 16.4118 3.12988 14.8786 3.125V0.78125C14.8786 0.351562 14.527 0 14.0973 0H12.5348C12.1052 0 11.7536 0.351562 11.7536 0.78125V3.125H11.6315C8.52117 3.125 6.02117 5.7959 6.30926 8.96484C6.51433 11.2158 8.23308 13.0469 10.4011 13.6816L15.4059 15.1465C16.0163 15.3271 16.4411 15.8936 16.4411 16.5283C16.4411 17.3242 15.7966 17.9688 15.0007 17.9688H11.7634C11.1677 17.9688 10.5817 17.7881 10.0934 17.4561C9.79558 17.2559 9.39519 17.3047 9.14129 17.5537L7.44207 19.2139C7.09539 19.5508 7.14422 20.1123 7.52996 20.4102C8.72625 21.3477 10.2204 21.8701 11.7536 21.875V24.2188C11.7536 24.6484 12.1052 25 12.5348 25H14.0973C14.527 25 14.8786 24.6484 14.8786 24.2188V21.8652C17.154 21.8213 19.2878 20.4688 20.0397 18.3154C21.0895 15.3076 19.3268 12.2217 16.4997 11.3965Z" fill="#29166F"/>
</svg>
