<svg width="26" height="18" viewBox="0 0 26 18" fill="none" xmlns="http://www.w3.org/2000/svg">
<path d="M25.6727 10.3618L22.5293 15.7505C22.2847 16.1698 21.9344 16.5177 21.5134 16.7595C21.0924 17.0013 20.6154 17.1286 20.1299 17.1286H2.77037C1.96642 17.1286 1.46551 16.2565 1.87059 15.562L5.01399 10.1734C5.25862 9.75401 5.60889 9.40609 6.02988 9.16429C6.45087 8.92249 6.92789 8.79525 7.41338 8.79525H24.7729C25.5769 8.79525 26.0778 9.66734 25.6727 10.3618ZM7.41338 7.40636H21.6495V5.32302C21.6495 4.17242 20.7168 3.23969 19.5662 3.23969H12.6217L9.84394 0.461914H2.8995C1.74889 0.461914 0.816162 1.39464 0.816162 2.54525V14.6132L3.8143 9.47355C4.55809 8.19846 5.93721 7.40636 7.41338 7.40636Z" fill="#29166F"/>
</svg>
