<svg width="26" height="26" viewBox="0 0 26 26" fill="none" xmlns="http://www.w3.org/2000/svg">
<g clip-path="url(#clip0_1617_862)">
<path d="M14.8787 6.71143V0.0708008H5.11304C4.46362 0.0708008 3.94116 0.593262 3.94116 1.24268V23.8989C3.94116 24.5483 4.46362 25.0708 5.11304 25.0708H21.5193C22.1687 25.0708 22.6912 24.5483 22.6912 23.8989V7.8833H16.0505C15.406 7.8833 14.8787 7.35596 14.8787 6.71143ZM18.0037 18.2349C18.0037 18.5571 17.74 18.8208 17.4177 18.8208H9.2146C8.89233 18.8208 8.62866 18.5571 8.62866 18.2349V17.8442C8.62866 17.522 8.89233 17.2583 9.2146 17.2583H17.4177C17.74 17.2583 18.0037 17.522 18.0037 17.8442V18.2349ZM18.0037 15.1099C18.0037 15.4321 17.74 15.6958 17.4177 15.6958H9.2146C8.89233 15.6958 8.62866 15.4321 8.62866 15.1099V14.7192C8.62866 14.397 8.89233 14.1333 9.2146 14.1333H17.4177C17.74 14.1333 18.0037 14.397 18.0037 14.7192V15.1099ZM18.0037 11.5942V11.9849C18.0037 12.3071 17.74 12.5708 17.4177 12.5708H9.2146C8.89233 12.5708 8.62866 12.3071 8.62866 11.9849V11.5942C8.62866 11.272 8.89233 11.0083 9.2146 11.0083H17.4177C17.74 11.0083 18.0037 11.272 18.0037 11.5942ZM22.6912 6.02295V6.3208H16.4412V0.0708008H16.739C17.0515 0.0708008 17.3494 0.192871 17.5691 0.412598L22.3494 5.19775C22.5691 5.41748 22.6912 5.71533 22.6912 6.02295Z" fill="#29166F"/>
</g>
<defs>
<clipPath id="clip0_1617_862">
<rect width="25" height="25" fill="white" transform="translate(0.816162 0.0708008)"/>
</clipPath>
</defs>
</svg>
