<svg width="26" height="26" viewBox="0 0 26 26" fill="none" xmlns="http://www.w3.org/2000/svg">
<g clip-path="url(#clip0_1617_768)">
<path d="M22.3491 5.86108L17.5688 1.07593C17.3491 0.856201 17.0513 0.734131 16.7388 0.734131H16.4409V6.98413H22.6909V6.68628C22.6909 6.37866 22.5688 6.08081 22.3491 5.86108ZM14.8784 7.37476V0.734131H5.11279C4.46338 0.734131 3.94092 1.25659 3.94092 1.90601V24.5623C3.94092 25.2117 4.46338 25.7341 5.11279 25.7341H21.519C22.1685 25.7341 22.6909 25.2117 22.6909 24.5623V8.54663H16.0503C15.4058 8.54663 14.8784 8.01929 14.8784 7.37476ZM7.06592 4.24976C7.06592 4.03394 7.24072 3.85913 7.45654 3.85913H11.3628C11.5786 3.85913 11.7534 4.03394 11.7534 4.24976V5.03101C11.7534 5.24683 11.5786 5.42163 11.3628 5.42163H7.45654C7.24072 5.42163 7.06592 5.24683 7.06592 5.03101V4.24976ZM7.06592 8.15601V7.37476C7.06592 7.15894 7.24072 6.98413 7.45654 6.98413H11.3628C11.5786 6.98413 11.7534 7.15894 11.7534 7.37476V8.15601C11.7534 8.37183 11.5786 8.54663 11.3628 8.54663H7.45654C7.24072 8.54663 7.06592 8.37183 7.06592 8.15601ZM14.0972 21.0408V22.2185C14.0972 22.4343 13.9224 22.6091 13.7065 22.6091H12.9253C12.7095 22.6091 12.5347 22.4343 12.5347 22.2185V21.0325C11.9834 21.0042 11.4473 20.8118 11.0029 20.4783C10.8125 20.3352 10.8027 20.05 10.9751 19.8855L11.5488 19.3381C11.6841 19.2092 11.8853 19.2034 12.0435 19.3025C12.2324 19.4207 12.4468 19.4841 12.6694 19.4841H14.042C14.3594 19.4841 14.6182 19.1951 14.6182 18.8401C14.6182 18.5496 14.4419 18.2937 14.1899 18.2185L11.9927 17.5593C11.085 17.2869 10.4507 16.4158 10.4507 15.4407C10.4507 14.2434 11.3809 13.2708 12.5342 13.24V12.0623C12.5342 11.8464 12.709 11.6716 12.9248 11.6716H13.7061C13.9219 11.6716 14.0967 11.8464 14.0967 12.0623V13.2483C14.6479 13.2766 15.1841 13.4685 15.6284 13.8025C15.8188 13.9456 15.8286 14.2307 15.6562 14.3953L15.0825 14.9426C14.9473 15.0715 14.7461 15.0774 14.5879 14.9783C14.3989 14.8596 14.1846 14.7966 13.9619 14.7966H12.5894C12.272 14.7966 12.0132 15.0857 12.0132 15.4407C12.0132 15.7312 12.1895 15.9871 12.4414 16.0623L14.6387 16.7214C15.5464 16.9939 16.1807 17.865 16.1807 18.8401C16.1807 20.0378 15.2505 21.01 14.0972 21.0408Z" fill="#29166F"/>
</g>
<defs>
<clipPath id="clip0_1617_768">
<rect width="25" height="25" fill="white" transform="translate(0.815918 0.734131)"/>
</clipPath>
</defs>
</svg>
