<svg width="129" height="36" viewBox="0 0 129 36" fill="none" xmlns="http://www.w3.org/2000/svg">
<path d="M58.3493 10.9554V25.6038H64.8573C68.1637 25.6038 70.1935 24.0971 70.1935 21.5859C70.1935 19.6189 69.0217 18.2168 67.0546 17.882C68.645 17.5053 69.6285 16.2707 69.6285 14.6175C69.6285 12.3365 67.7452 10.9554 64.7109 10.9554H58.3493ZM60.8186 13.1527H64.5853C66.1548 13.1527 67.0964 13.8223 67.0964 15.0569C67.0964 16.2916 66.1548 17.024 64.5853 17.024H60.8186V13.1527ZM60.8186 19.2003H64.5853C66.5105 19.2003 67.6615 19.9746 67.6615 21.272C67.6615 22.6532 66.5105 23.4065 64.5853 23.4065H60.8186V19.2003ZM85.9312 22.2974L87.3332 25.6038H89.9699L83.5665 10.9554H81.0345L74.5682 25.6038H77.1422L78.5442 22.2974H85.9312ZM84.9895 20.1002H79.465L82.2272 13.5921L84.9895 20.1002ZM107.972 25.6038V10.9554H105.545V21.4813L97.6976 10.9554H95.2702V25.6038H97.7395V15.0988L105.545 25.6038H107.972ZM124.964 25.6038H127.936L121.888 17.2123L127.559 10.9554H124.65L117.661 18.5307V10.9554H115.192V25.6038H117.661V21.8789L120.151 19.1376L124.964 25.6038Z" fill="white"/>
<path d="M0 27.6232V7.85833L7.85834 0H25.4801V35.4816H7.85834L0 27.6232Z" fill="#E9001E"/>
<path d="M50.8705 27.6232V7.85833L43.0121 0H25.3904V35.4816H43.0121L50.8705 27.6232Z" fill="#29166F"/>
<path d="M6.94415 23.9176H7.60495C7.90877 23.9176 8.12144 23.8568 8.24297 23.7353C8.37969 23.5986 8.44805 23.3859 8.44805 23.0973V13.3447C8.44805 13.0561 8.37969 12.851 8.24297 12.7295C8.12144 12.5928 7.90877 12.5244 7.60495 12.5244H7.08087V10.861H12.0255V12.5244H11.6153C11.3419 12.5244 11.1444 12.5928 11.0229 12.7295C10.9166 12.8662 10.8634 13.0713 10.8634 13.3447V18.1754L16.127 12.5244H14.9649V10.861H19.9779V12.6156H19.1348C18.8462 12.6156 18.6183 12.6611 18.4512 12.7523C18.2841 12.8434 18.0943 13.0029 17.8816 13.2308L14.1902 17.1272L18.2234 23.234C18.3905 23.477 18.5652 23.6517 18.7475 23.7581C18.9298 23.8644 19.1652 23.9176 19.4538 23.9176H20.2058V25.6038H14.9649V23.9176H16.241L12.7547 18.6311L10.8634 20.6591V23.0973C10.8634 23.3707 10.9166 23.5758 11.0229 23.7125C11.1444 23.8492 11.3571 23.9176 11.6609 23.9176H12.1622V25.6038H6.94415V23.9176Z" fill="white"/>
<path d="M32.8687 13.4359C32.732 13.0561 32.5725 12.8054 32.3902 12.6839C32.2079 12.5624 31.9041 12.5016 31.4787 12.5016H31.0002V10.861H34.5093L38.3146 22.4365L42.0744 10.861H45.6063V12.5016H45.1277C44.7024 12.5016 44.3986 12.5624 44.2163 12.6839C44.034 12.8054 43.8745 13.0561 43.7378 13.4359L39.4767 25.6038H37.1753L32.8687 13.4359Z" fill="white"/>
</svg>
