<svg width="109" height="30" viewBox="0 0 109 30" fill="none" xmlns="http://www.w3.org/2000/svg">
<path d="M48.8728 9.91155V22.1809H54.3239C57.0933 22.1809 58.7934 20.9189 58.7934 18.8156C58.7934 17.168 57.8119 15.9936 56.1643 15.7132C57.4964 15.3977 58.3202 14.3636 58.3202 12.9789C58.3202 11.0684 56.7427 9.91155 54.2012 9.91155H48.8728ZM50.9411 11.752H54.096C55.4106 11.752 56.1994 12.3128 56.1994 13.347C56.1994 14.3811 55.4106 14.9946 54.096 14.9946H50.9411V11.752ZM50.9411 16.8174H54.096C55.7086 16.8174 56.6726 17.466 56.6726 18.5527C56.6726 19.7095 55.7086 20.3405 54.096 20.3405H50.9411V16.8174ZM71.9752 19.4115L73.1495 22.1809H75.358L69.9946 9.91155H67.8737L62.4577 22.1809H64.6136L65.7879 19.4115H71.9752ZM71.1865 17.5711H66.5592L68.8728 12.12L71.1865 17.5711ZM90.4367 22.1809V9.91155H88.4035V18.728L81.8307 9.91155H79.7975V22.1809H81.8657V13.382L88.4035 22.1809H90.4367ZM104.669 22.1809H107.158L102.092 15.1523L106.842 9.91155H104.406L98.5519 16.2566V9.91155H96.4836V22.1809H98.5519V19.061L100.638 16.7649L104.669 22.1809Z" fill="black"/>
<path d="M0 23.137V6.58208L6.58208 0H21.3419V29.7191H6.58208L0 23.137Z" fill="#E9001E"/>
<path d="M42.6089 23.137V6.58208L36.0268 0H21.267V29.7191H36.0268L42.6089 23.137Z" fill="#29166F"/>
<path d="M6.03443 20.7686H6.58791C6.84239 20.7686 7.02052 20.7177 7.12231 20.6159C7.23682 20.5014 7.29408 20.3232 7.29408 20.0815V11.9128C7.29408 11.6711 7.23682 11.4993 7.12231 11.3975C7.02052 11.283 6.84239 11.2257 6.58791 11.2257H6.14894V9.83249H10.2905V11.2257H9.94699C9.71796 11.2257 9.55255 11.283 9.45076 11.3975C9.36169 11.512 9.31716 11.6838 9.31716 11.9128V15.959L13.7259 11.2257H12.7526V9.83249H16.9514V11.3021H16.2453C16.0035 11.3021 15.8126 11.3403 15.6727 11.4166C15.5327 11.4929 15.3737 11.6265 15.1955 11.8174L12.1037 15.081L15.4818 20.196C15.6218 20.3996 15.7681 20.5459 15.9208 20.635C16.0735 20.724 16.2707 20.7686 16.5125 20.7686H17.1423V22.1809H12.7526V20.7686H13.8214L10.9013 16.3407L9.31716 18.0393V20.0815C9.31716 20.3105 9.36169 20.4823 9.45076 20.5968C9.55255 20.7113 9.73068 20.7686 9.98516 20.7686H10.405V22.1809H6.03443V20.7686Z" fill="white"/>
<path d="M27.4112 11.9892C27.2966 11.6711 27.163 11.4611 27.0104 11.3593C26.8577 11.2575 26.6032 11.2067 26.2469 11.2067H25.8461V9.83249H28.7853L31.9726 19.528L35.1218 9.83249H38.08V11.2067H37.6792C37.323 11.2067 37.0685 11.2575 36.9158 11.3593C36.7631 11.4611 36.6295 11.6711 36.515 11.9892L32.946 22.1809H31.0183L27.4112 11.9892Z" fill="white"/>
</svg>
