<svg width="23" height="26" viewBox="0 0 23 26" fill="none" xmlns="http://www.w3.org/2000/svg">
<path d="M22.2573 18.2263V1.82007C22.2573 1.17065 21.7349 0.648193 21.0854 0.648193H5.06982C2.48193 0.648193 0.382324 2.7478 0.382324 5.33569V20.9607C0.382324 23.5486 2.48193 25.6482 5.06982 25.6482H21.0854C21.7349 25.6482 22.2573 25.1257 22.2573 24.4763V23.6951C22.2573 23.3289 22.0864 22.9968 21.8228 22.782C21.6177 22.03 21.6177 19.8865 21.8228 19.1345C22.0864 18.9246 22.2573 18.5925 22.2573 18.2263ZM6.63232 7.19116C6.63232 7.03003 6.76416 6.89819 6.92529 6.89819H17.2769C17.438 6.89819 17.5698 7.03003 17.5698 7.19116V8.16772C17.5698 8.32886 17.438 8.46069 17.2769 8.46069H6.92529C6.76416 8.46069 6.63232 8.32886 6.63232 8.16772V7.19116ZM6.63232 10.3162C6.63232 10.155 6.76416 10.0232 6.92529 10.0232H17.2769C17.438 10.0232 17.5698 10.155 17.5698 10.3162V11.2927C17.5698 11.4539 17.438 11.5857 17.2769 11.5857H6.92529C6.76416 11.5857 6.63232 11.4539 6.63232 11.2927V10.3162ZM19.0054 22.5232H5.06982C4.20557 22.5232 3.50732 21.825 3.50732 20.9607C3.50732 20.1013 4.21045 19.3982 5.06982 19.3982H19.0054C18.9126 20.2332 18.9126 21.6882 19.0054 22.5232Z" fill="#29166F"/>
</svg>
