<svg width="26" height="26" viewBox="0 0 26 26" fill="none" xmlns="http://www.w3.org/2000/svg">
<g clip-path="url(#clip0_1617_866)">
<path d="M12.3527 24.9355C5.25806 14.6504 3.94116 13.5949 3.94116 9.81494C3.94116 4.63726 8.13848 0.439941 13.3162 0.439941C18.4938 0.439941 22.6912 4.63726 22.6912 9.81494C22.6912 13.5949 21.3743 14.6504 14.2796 24.9355C13.8141 25.6081 12.8182 25.6081 12.3527 24.9355ZM13.3162 13.7212C15.4735 13.7212 17.2224 11.9723 17.2224 9.81494C17.2224 7.65757 15.4735 5.90869 13.3162 5.90869C11.1588 5.90869 9.40991 7.65757 9.40991 9.81494C9.40991 11.9723 11.1588 13.7212 13.3162 13.7212Z" fill="#29166F"/>
</g>
<defs>
<clipPath id="clip0_1617_866">
<rect width="25" height="25" fill="white" transform="translate(0.816162 0.439941)"/>
</clipPath>
</defs>
</svg>
