<svg width="17" height="26" viewBox="0 0 17 26" fill="none" xmlns="http://www.w3.org/2000/svg">
<path d="M13.7849 0.29541H2.84741C1.55347 0.29541 0.503662 1.34521 0.503662 2.63916V22.9517C0.503662 24.2456 1.55347 25.2954 2.84741 25.2954H13.7849C15.0789 25.2954 16.1287 24.2456 16.1287 22.9517V2.63916C16.1287 1.34521 15.0789 0.29541 13.7849 0.29541ZM8.31616 23.7329C7.4519 23.7329 6.75366 23.0347 6.75366 22.1704C6.75366 21.3062 7.4519 20.6079 8.31616 20.6079C9.18042 20.6079 9.87866 21.3062 9.87866 22.1704C9.87866 23.0347 9.18042 23.7329 8.31616 23.7329ZM13.7849 18.4595C13.7849 18.7817 13.5212 19.0454 13.199 19.0454H3.43335C3.11108 19.0454 2.84741 18.7817 2.84741 18.4595V3.2251C2.84741 2.90283 3.11108 2.63916 3.43335 2.63916H13.199C13.5212 2.63916 13.7849 2.90283 13.7849 3.2251V18.4595Z" fill="#29166F"/>
</svg>
