<svg width="26" height="25" viewBox="0 0 26 25" fill="none" xmlns="http://www.w3.org/2000/svg">
<g clip-path="url(#clip0_1617_847)">
<path d="M14.5662 13.75H13.9412V10.3125C13.9412 10.1398 13.8013 10 13.6287 10H13.0982C12.913 10 12.7322 10.0547 12.5783 10.1574L11.9794 10.5566C11.9453 10.5794 11.916 10.6086 11.8931 10.6427C11.8703 10.6768 11.8544 10.715 11.8463 10.7553C11.8383 10.7955 11.8382 10.8369 11.8462 10.8772C11.8541 10.9174 11.87 10.9557 11.8927 10.9898L12.2396 11.5098C12.2623 11.5439 12.2916 11.5733 12.3257 11.5961C12.3597 11.6189 12.398 11.6348 12.4382 11.6429C12.4785 11.651 12.5199 11.651 12.5601 11.643C12.6004 11.6351 12.6387 11.6193 12.6728 11.5965L12.6912 11.5844V13.75H12.0662C11.8935 13.75 11.7537 13.8898 11.7537 14.0625V14.6875C11.7537 14.8602 11.8935 15 12.0662 15H14.5662C14.7388 15 14.8787 14.8602 14.8787 14.6875V14.0625C14.8787 13.8898 14.7388 13.75 14.5662 13.75ZM24.5662 5H2.06616C1.37593 5 0.816162 5.55977 0.816162 6.25V18.75C0.816162 19.4402 1.37593 20 2.06616 20H24.5662C25.2564 20 25.8162 19.4402 25.8162 18.75V6.25C25.8162 5.55977 25.2564 5 24.5662 5ZM2.69116 18.125V15.625C4.07202 15.625 5.19116 16.7441 5.19116 18.125H2.69116ZM2.69116 9.375V6.875H5.19116C5.19116 8.25586 4.07202 9.375 2.69116 9.375ZM13.3162 16.875C11.2451 16.875 9.56616 14.916 9.56616 12.5C9.56616 10.0836 11.2451 8.125 13.3162 8.125C15.3873 8.125 17.0662 10.0836 17.0662 12.5C17.0662 14.9168 15.3865 16.875 13.3162 16.875ZM23.9412 18.125H21.4412C21.4412 16.7441 22.5603 15.625 23.9412 15.625V18.125ZM23.9412 9.375C22.5603 9.375 21.4412 8.25586 21.4412 6.875H23.9412V9.375Z" fill="#29166F"/>
</g>
<defs>
<clipPath id="clip0_1617_847">
<rect width="25" height="25" fill="white" transform="translate(0.816162)"/>
</clipPath>
</defs>
</svg>
