<svg width="23" height="23" viewBox="0 0 23 23" fill="none" xmlns="http://www.w3.org/2000/svg">
<path d="M0.378662 10.2329H9.75366V0.85791H0.378662V10.2329ZM3.50366 3.98291H6.62866V7.10791H3.50366V3.98291ZM12.8787 0.85791V10.2329H22.2537V0.85791H12.8787ZM19.1287 7.10791H16.0037V3.98291H19.1287V7.10791ZM0.378662 22.7329H9.75366V13.3579H0.378662V22.7329ZM3.50366 16.4829H6.62866V19.6079H3.50366V16.4829ZM20.6912 13.3579H22.2537V19.6079H17.5662V18.0454H16.0037V22.7329H12.8787V13.3579H17.5662V14.9204H20.6912V13.3579ZM20.6912 21.1704H22.2537V22.7329H20.6912V21.1704ZM17.5662 21.1704H19.1287V22.7329H17.5662V21.1704Z" fill="#29166F"/>
</svg>
