<svg width="26" height="25" viewBox="0 0 26 25" fill="none" xmlns="http://www.w3.org/2000/svg">
<g clip-path="url(#clip0_1617_843)">
<path d="M24.773 17.5307C25.2307 17.9884 25.2307 18.7304 24.773 19.188L20.8667 23.0935C20.1338 23.8264 18.8662 23.3127 18.8662 22.2648V20.3125H15.9958C15.9155 20.3125 15.836 20.296 15.7623 20.2639C15.6886 20.2319 15.6223 20.1851 15.5675 20.1264L12.1224 16.4352L14.7265 13.645L17.3037 16.4062H18.8662V14.4541C18.8662 13.4073 20.133 12.8916 20.8667 13.6254L24.773 17.5307ZM0.702148 8.59375H4.80371L7.38091 11.355L9.98506 8.56484L6.53994 4.87363C6.48512 4.81489 6.4188 4.76805 6.34511 4.73603C6.27141 4.70401 6.19192 4.68749 6.11157 4.6875H0.702148C0.378564 4.6875 0.116211 4.94985 0.116211 5.27343V8.00781C0.116211 8.33139 0.378564 8.59375 0.702148 8.59375ZM18.8662 8.59375V10.5461C18.8662 11.5939 20.1338 12.1076 20.8667 11.3748L24.773 7.46928C25.2307 7.01162 25.2307 6.26963 24.773 5.81201L20.8667 1.90669C20.133 1.1729 18.8662 1.68857 18.8662 2.7353V4.6875H15.9958C15.9155 4.68751 15.836 4.70403 15.7623 4.73605C15.6886 4.76807 15.6223 4.8149 15.5675 4.87363L4.80371 16.4062H0.702148C0.378564 16.4062 0.116211 16.6686 0.116211 16.9922V19.7266C0.116211 20.0501 0.378564 20.3125 0.702148 20.3125H6.11157C6.27397 20.3125 6.4291 20.2451 6.53994 20.1264L17.3037 8.59375H18.8662Z" fill="#29166F"/>
</g>
<defs>
<clipPath id="clip0_1617_843">
<rect width="25" height="25" fill="white" transform="translate(0.116211)"/>
</clipPath>
</defs>
</svg>
