<svg width="178" height="37" viewBox="0 0 178 37" fill="none" xmlns="http://www.w3.org/2000/svg">
<path d="M34.33 23.5C34.2273 23.5 34.1433 23.4673 34.078 23.402C34.0127 23.3367 33.98 23.2527 33.98 23.15V14.05C33.98 13.9473 34.0127 13.8633 34.078 13.798C34.1433 13.7327 34.2273 13.7 34.33 13.7H38.138C39.342 13.7 40.2893 13.98 40.98 14.54C41.68 15.0907 42.03 15.8747 42.03 16.892C42.03 17.5547 41.8667 18.1147 41.54 18.572C41.2227 19.0293 40.8027 19.3747 40.28 19.608L42.212 23.052C42.24 23.108 42.254 23.1593 42.254 23.206C42.254 23.2807 42.2213 23.3507 42.156 23.416C42.1 23.472 42.03 23.5 41.946 23.5H40.098C39.9207 23.5 39.79 23.458 39.706 23.374C39.622 23.2807 39.5613 23.1967 39.524 23.122L37.928 20.042H36.486V23.15C36.486 23.2527 36.4533 23.3367 36.388 23.402C36.3227 23.4673 36.2387 23.5 36.136 23.5H34.33ZM36.486 18.068H38.11C38.5487 18.068 38.8753 17.9607 39.09 17.746C39.314 17.5313 39.426 17.2373 39.426 16.864C39.426 16.5 39.3187 16.206 39.104 15.982C38.8987 15.758 38.5673 15.646 38.11 15.646H36.486V18.068ZM46.707 23.64C45.6057 23.64 44.7283 23.3413 44.075 22.744C43.4217 22.1467 43.081 21.26 43.053 20.084C43.053 20.0187 43.053 19.9347 43.053 19.832C43.053 19.7293 43.053 19.65 43.053 19.594C43.081 18.8567 43.2443 18.2267 43.543 17.704C43.851 17.172 44.271 16.7707 44.803 16.5C45.3443 16.22 45.9743 16.08 46.693 16.08C47.5143 16.08 48.191 16.2433 48.723 16.57C49.2643 16.8967 49.6703 17.34 49.941 17.9C50.2117 18.46 50.347 19.0993 50.347 19.818V20.154C50.347 20.2567 50.3097 20.3407 50.235 20.406C50.1697 20.4713 50.0903 20.504 49.997 20.504H45.517C45.517 20.5133 45.517 20.5273 45.517 20.546C45.517 20.5647 45.517 20.5833 45.517 20.602C45.5263 20.8727 45.573 21.12 45.657 21.344C45.741 21.568 45.8717 21.7453 46.049 21.876C46.2263 22.0067 46.441 22.072 46.693 22.072C46.8797 22.072 47.0337 22.044 47.155 21.988C47.2857 21.9227 47.393 21.8527 47.477 21.778C47.561 21.694 47.6263 21.624 47.673 21.568C47.757 21.4747 47.8223 21.4187 47.869 21.4C47.925 21.372 48.009 21.358 48.121 21.358H49.857C49.9503 21.358 50.025 21.386 50.081 21.442C50.1463 21.4887 50.1743 21.5587 50.165 21.652C50.1557 21.8107 50.0763 22.002 49.927 22.226C49.7777 22.45 49.5583 22.674 49.269 22.898C48.989 23.1127 48.6343 23.29 48.205 23.43C47.7757 23.57 47.2763 23.64 46.707 23.64ZM45.517 19.118H47.883V19.09C47.883 18.7913 47.8363 18.53 47.743 18.306C47.659 18.082 47.5237 17.9093 47.337 17.788C47.1597 17.6667 46.945 17.606 46.693 17.606C46.441 17.606 46.2263 17.6667 46.049 17.788C45.881 17.9093 45.7503 18.082 45.657 18.306C45.5637 18.53 45.517 18.7913 45.517 19.09V19.118ZM51.9465 23.5C51.8438 23.5 51.7598 23.4673 51.6945 23.402C51.6292 23.3367 51.5965 23.2527 51.5965 23.15V13.91C51.5965 13.8073 51.6292 13.7233 51.6945 13.658C51.7598 13.5927 51.8438 13.56 51.9465 13.56H53.5985C53.7012 13.56 53.7852 13.5927 53.8505 13.658C53.9158 13.7233 53.9485 13.8073 53.9485 13.91V23.15C53.9485 23.2527 53.9158 23.3367 53.8505 23.402C53.7852 23.4673 53.7012 23.5 53.5985 23.5H51.9465ZM58.8993 23.64C57.798 23.64 56.9207 23.3413 56.2673 22.744C55.614 22.1467 55.2733 21.26 55.2453 20.084C55.2453 20.0187 55.2453 19.9347 55.2453 19.832C55.2453 19.7293 55.2453 19.65 55.2453 19.594C55.2733 18.8567 55.4367 18.2267 55.7353 17.704C56.0433 17.172 56.4633 16.7707 56.9953 16.5C57.5367 16.22 58.1667 16.08 58.8853 16.08C59.7067 16.08 60.3833 16.2433 60.9153 16.57C61.4567 16.8967 61.8627 17.34 62.1333 17.9C62.404 18.46 62.5393 19.0993 62.5393 19.818V20.154C62.5393 20.2567 62.502 20.3407 62.4273 20.406C62.362 20.4713 62.2827 20.504 62.1893 20.504H57.7093C57.7093 20.5133 57.7093 20.5273 57.7093 20.546C57.7093 20.5647 57.7093 20.5833 57.7093 20.602C57.7187 20.8727 57.7653 21.12 57.8493 21.344C57.9333 21.568 58.064 21.7453 58.2413 21.876C58.4187 22.0067 58.6333 22.072 58.8853 22.072C59.072 22.072 59.226 22.044 59.3473 21.988C59.478 21.9227 59.5853 21.8527 59.6693 21.778C59.7533 21.694 59.8187 21.624 59.8653 21.568C59.9493 21.4747 60.0147 21.4187 60.0613 21.4C60.1173 21.372 60.2013 21.358 60.3133 21.358H62.0493C62.1427 21.358 62.2173 21.386 62.2733 21.442C62.3387 21.4887 62.3667 21.5587 62.3573 21.652C62.348 21.8107 62.2687 22.002 62.1193 22.226C61.97 22.45 61.7507 22.674 61.4613 22.898C61.1813 23.1127 60.8267 23.29 60.3973 23.43C59.968 23.57 59.4687 23.64 58.8993 23.64ZM57.7093 19.118H60.0753V19.09C60.0753 18.7913 60.0287 18.53 59.9353 18.306C59.8513 18.082 59.716 17.9093 59.5293 17.788C59.352 17.6667 59.1373 17.606 58.8853 17.606C58.6333 17.606 58.4187 17.6667 58.2413 17.788C58.0733 17.9093 57.9427 18.082 57.8493 18.306C57.756 18.53 57.7093 18.7913 57.7093 19.09V19.118ZM66.1054 23.5C65.9654 23.5 65.8627 23.4673 65.7974 23.402C65.7321 23.3273 65.6761 23.2433 65.6294 23.15L62.9834 16.654C62.9647 16.6167 62.9554 16.5747 62.9554 16.528C62.9554 16.444 62.9834 16.374 63.0394 16.318C63.1047 16.2527 63.1841 16.22 63.2774 16.22H64.8594C64.9807 16.22 65.0741 16.2527 65.1394 16.318C65.2047 16.3833 65.2467 16.4487 65.2654 16.514L66.8474 20.812L68.4434 16.514C68.4621 16.4487 68.5041 16.3833 68.5694 16.318C68.6347 16.2527 68.7281 16.22 68.8494 16.22H70.4314C70.5154 16.22 70.5901 16.2527 70.6554 16.318C70.7207 16.374 70.7534 16.444 70.7534 16.528C70.7534 16.5747 70.7441 16.6167 70.7254 16.654L68.0794 23.15C68.0421 23.2433 67.9861 23.3273 67.9114 23.402C67.8461 23.4673 67.7387 23.5 67.5894 23.5H66.1054ZM74.9491 23.64C74.1651 23.64 73.5025 23.514 72.9611 23.262C72.4291 23.01 72.0185 22.6507 71.7291 22.184C71.4491 21.708 71.2905 21.1433 71.2531 20.49C71.2438 20.3033 71.2391 20.0933 71.2391 19.86C71.2391 19.6173 71.2438 19.4073 71.2531 19.23C71.2905 18.5673 71.4585 18.0027 71.7571 17.536C72.0558 17.0693 72.4711 16.71 73.0031 16.458C73.5445 16.206 74.1931 16.08 74.9491 16.08C75.7145 16.08 76.3631 16.206 76.8951 16.458C77.4365 16.71 77.8565 17.0693 78.1551 17.536C78.4538 18.0027 78.6218 18.5673 78.6591 19.23C78.6685 19.4073 78.6731 19.6173 78.6731 19.86C78.6731 20.0933 78.6685 20.3033 78.6591 20.49C78.6218 21.1433 78.4585 21.708 78.1691 22.184C77.8891 22.6507 77.4785 23.01 76.9371 23.262C76.4051 23.514 75.7425 23.64 74.9491 23.64ZM74.9491 21.932C75.3691 21.932 75.6725 21.806 75.8591 21.554C76.0551 21.302 76.1671 20.924 76.1951 20.42C76.2045 20.28 76.2091 20.0933 76.2091 19.86C76.2091 19.6267 76.2045 19.44 76.1951 19.3C76.1671 18.8053 76.0551 18.432 75.8591 18.18C75.6725 17.9187 75.3691 17.788 74.9491 17.788C74.5385 17.788 74.2351 17.9187 74.0391 18.18C73.8431 18.432 73.7358 18.8053 73.7171 19.3C73.7078 19.44 73.7031 19.6267 73.7031 19.86C73.7031 20.0933 73.7078 20.28 73.7171 20.42C73.7358 20.924 73.8431 21.302 74.0391 21.554C74.2351 21.806 74.5385 21.932 74.9491 21.932ZM83.4085 23.5C83.3059 23.5 83.2219 23.4673 83.1565 23.402C83.0912 23.3367 83.0585 23.2527 83.0585 23.15V14.05C83.0585 13.9473 83.0912 13.8633 83.1565 13.798C83.2219 13.7327 83.3059 13.7 83.4085 13.7H85.2845C85.3872 13.7 85.4712 13.7327 85.5365 13.798C85.6019 13.8633 85.6345 13.9473 85.6345 14.05V23.15C85.6345 23.2527 85.6019 23.3367 85.5365 23.402C85.4712 23.4673 85.3872 23.5 85.2845 23.5H83.4085ZM87.7306 23.5C87.6279 23.5 87.5439 23.4673 87.4786 23.402C87.4133 23.3367 87.3806 23.2527 87.3806 23.15V16.57C87.3806 16.4673 87.4133 16.3833 87.4786 16.318C87.5439 16.2527 87.6279 16.22 87.7306 16.22H89.2566C89.3593 16.22 89.4433 16.2527 89.5086 16.318C89.5739 16.3833 89.6066 16.4673 89.6066 16.57V17.046C89.7933 16.794 90.0546 16.5747 90.3906 16.388C90.7266 16.192 91.1233 16.0893 91.5806 16.08C92.6539 16.0613 93.3913 16.4673 93.7926 17.298C94.0073 16.9433 94.3153 16.654 94.7166 16.43C95.1179 16.1967 95.5566 16.08 96.0326 16.08C96.5179 16.08 96.9519 16.192 97.3346 16.416C97.7266 16.6307 98.0393 16.9667 98.2726 17.424C98.5059 17.872 98.6226 18.4553 98.6226 19.174V23.15C98.6226 23.2527 98.5853 23.3367 98.5106 23.402C98.4453 23.4673 98.3659 23.5 98.2726 23.5H96.6486C96.5459 23.5 96.4573 23.4673 96.3826 23.402C96.3173 23.3367 96.2846 23.2527 96.2846 23.15V19.272C96.2846 18.9453 96.2379 18.6887 96.1446 18.502C96.0513 18.306 95.9253 18.166 95.7666 18.082C95.6079 17.998 95.4259 17.956 95.2206 17.956C95.0526 17.956 94.8846 17.998 94.7166 18.082C94.5579 18.166 94.4273 18.306 94.3246 18.502C94.2313 18.6887 94.1846 18.9453 94.1846 19.272V23.15C94.1846 23.2527 94.1519 23.3367 94.0866 23.402C94.0213 23.4673 93.9373 23.5 93.8346 23.5H92.2106C92.1079 23.5 92.0239 23.4673 91.9586 23.402C91.8933 23.3367 91.8606 23.2527 91.8606 23.15V19.272C91.8606 18.9453 91.8093 18.6887 91.7066 18.502C91.6039 18.306 91.4733 18.166 91.3146 18.082C91.1559 17.998 90.9786 17.956 90.7826 17.956C90.6146 17.956 90.4466 17.998 90.2786 18.082C90.1199 18.166 89.9893 18.306 89.8866 18.502C89.7933 18.6887 89.7466 18.9407 89.7466 19.258V23.15C89.7466 23.2527 89.7093 23.3367 89.6346 23.402C89.5693 23.4673 89.4853 23.5 89.3826 23.5H87.7306ZM100.478 23.5C100.375 23.5 100.291 23.4673 100.226 23.402C100.161 23.3367 100.128 23.2527 100.128 23.15V16.57C100.128 16.4673 100.161 16.3833 100.226 16.318C100.291 16.2527 100.375 16.22 100.478 16.22H102.004C102.107 16.22 102.191 16.2527 102.256 16.318C102.321 16.3833 102.354 16.4673 102.354 16.57V17.046C102.541 16.794 102.802 16.5747 103.138 16.388C103.474 16.192 103.871 16.0893 104.328 16.08C105.401 16.0613 106.139 16.4673 106.54 17.298C106.755 16.9433 107.063 16.654 107.464 16.43C107.865 16.1967 108.304 16.08 108.78 16.08C109.265 16.08 109.699 16.192 110.082 16.416C110.474 16.6307 110.787 16.9667 111.02 17.424C111.253 17.872 111.37 18.4553 111.37 19.174V23.15C111.37 23.2527 111.333 23.3367 111.258 23.402C111.193 23.4673 111.113 23.5 111.02 23.5H109.396C109.293 23.5 109.205 23.4673 109.13 23.402C109.065 23.3367 109.032 23.2527 109.032 23.15V19.272C109.032 18.9453 108.985 18.6887 108.892 18.502C108.799 18.306 108.673 18.166 108.514 18.082C108.355 17.998 108.173 17.956 107.968 17.956C107.8 17.956 107.632 17.998 107.464 18.082C107.305 18.166 107.175 18.306 107.072 18.502C106.979 18.6887 106.932 18.9453 106.932 19.272V23.15C106.932 23.2527 106.899 23.3367 106.834 23.402C106.769 23.4673 106.685 23.5 106.582 23.5H104.958C104.855 23.5 104.771 23.4673 104.706 23.402C104.641 23.3367 104.608 23.2527 104.608 23.15V19.272C104.608 18.9453 104.557 18.6887 104.454 18.502C104.351 18.306 104.221 18.166 104.062 18.082C103.903 17.998 103.726 17.956 103.53 17.956C103.362 17.956 103.194 17.998 103.026 18.082C102.867 18.166 102.737 18.306 102.634 18.502C102.541 18.6887 102.494 18.9407 102.494 19.258V23.15C102.494 23.2527 102.457 23.3367 102.382 23.402C102.317 23.4673 102.233 23.5 102.13 23.5H100.478ZM113.226 23.5C113.123 23.5 113.039 23.4673 112.974 23.402C112.908 23.3367 112.876 23.2527 112.876 23.15V16.57C112.876 16.4673 112.908 16.3833 112.974 16.318C113.039 16.2527 113.123 16.22 113.226 16.22H114.878C114.971 16.22 115.05 16.2527 115.116 16.318C115.19 16.3833 115.228 16.4673 115.228 16.57V23.15C115.228 23.2527 115.19 23.3367 115.116 23.402C115.05 23.4673 114.971 23.5 114.878 23.5H113.226ZM113.212 15.17C113.109 15.17 113.025 15.1373 112.96 15.072C112.894 15.0067 112.862 14.9227 112.862 14.82V13.574C112.862 13.4713 112.894 13.3873 112.96 13.322C113.025 13.2473 113.109 13.21 113.212 13.21H114.878C114.98 13.21 115.064 13.2473 115.13 13.322C115.204 13.3873 115.242 13.4713 115.242 13.574V14.82C115.242 14.9227 115.204 15.0067 115.13 15.072C115.064 15.1373 114.98 15.17 114.878 15.17H113.212ZM120.375 26.58C119.656 26.58 119.059 26.4867 118.583 26.3C118.116 26.1133 117.743 25.8893 117.463 25.628C117.192 25.3667 116.996 25.1053 116.875 24.844C116.754 24.592 116.688 24.3913 116.679 24.242C116.67 24.1393 116.702 24.0553 116.777 23.99C116.852 23.9247 116.94 23.892 117.043 23.892H118.821C118.905 23.892 118.975 23.9107 119.031 23.948C119.096 23.9947 119.148 24.0693 119.185 24.172C119.232 24.2747 119.292 24.382 119.367 24.494C119.451 24.606 119.563 24.6947 119.703 24.76C119.852 24.8347 120.053 24.872 120.305 24.872C120.585 24.872 120.818 24.8253 121.005 24.732C121.192 24.648 121.332 24.5033 121.425 24.298C121.518 24.102 121.565 23.836 121.565 23.5V22.562C121.35 22.7953 121.075 22.9867 120.739 23.136C120.403 23.276 119.997 23.346 119.521 23.346C119.045 23.346 118.625 23.276 118.261 23.136C117.897 22.996 117.594 22.786 117.351 22.506C117.108 22.226 116.917 21.8853 116.777 21.484C116.646 21.0827 116.567 20.6207 116.539 20.098C116.53 19.8553 116.53 19.6127 116.539 19.37C116.567 18.866 116.646 18.4133 116.777 18.012C116.908 17.6107 117.094 17.2653 117.337 16.976C117.589 16.6867 117.897 16.4673 118.261 16.318C118.625 16.1593 119.045 16.08 119.521 16.08C120.025 16.08 120.454 16.178 120.809 16.374C121.173 16.5607 121.472 16.7987 121.705 17.088V16.57C121.705 16.4767 121.738 16.3973 121.803 16.332C121.868 16.2573 121.952 16.22 122.055 16.22H123.665C123.768 16.22 123.852 16.2573 123.917 16.332C123.992 16.3973 124.029 16.4767 124.029 16.57V23.304C124.029 24.0133 123.884 24.6107 123.595 25.096C123.306 25.5813 122.89 25.95 122.349 26.202C121.808 26.454 121.15 26.58 120.375 26.58ZM120.277 21.526C120.576 21.526 120.818 21.4607 121.005 21.33C121.192 21.1993 121.327 21.0313 121.411 20.826C121.504 20.6207 121.556 20.4013 121.565 20.168C121.574 20.0653 121.579 19.9207 121.579 19.734C121.579 19.5473 121.574 19.4073 121.565 19.314C121.556 19.0713 121.504 18.8473 121.411 18.642C121.327 18.4367 121.192 18.2733 121.005 18.152C120.818 18.0213 120.576 17.956 120.277 17.956C119.969 17.956 119.722 18.0213 119.535 18.152C119.358 18.2827 119.227 18.46 119.143 18.684C119.068 18.908 119.022 19.1553 119.003 19.426C118.994 19.6313 118.994 19.8413 119.003 20.056C119.022 20.3267 119.068 20.574 119.143 20.798C119.227 21.022 119.358 21.1993 119.535 21.33C119.722 21.4607 119.969 21.526 120.277 21.526ZM125.965 23.5C125.862 23.5 125.778 23.4673 125.713 23.402C125.648 23.3367 125.615 23.2527 125.615 23.15V16.57C125.615 16.4767 125.648 16.3973 125.713 16.332C125.778 16.2573 125.862 16.22 125.965 16.22H127.575C127.678 16.22 127.762 16.2573 127.827 16.332C127.892 16.3973 127.925 16.4767 127.925 16.57V17.13C128.177 16.8407 128.476 16.6167 128.821 16.458C129.176 16.2993 129.572 16.22 130.011 16.22H130.627C130.72 16.22 130.8 16.2527 130.865 16.318C130.94 16.3833 130.977 16.4673 130.977 16.57V18.012C130.977 18.1053 130.94 18.1893 130.865 18.264C130.8 18.3293 130.72 18.362 130.627 18.362H129.269C128.886 18.362 128.588 18.4693 128.373 18.684C128.168 18.8893 128.065 19.1833 128.065 19.566V23.15C128.065 23.2527 128.028 23.3367 127.953 23.402C127.888 23.4673 127.804 23.5 127.701 23.5H125.965ZM133.97 23.64C133.466 23.64 133.014 23.5467 132.612 23.36C132.22 23.164 131.908 22.9027 131.674 22.576C131.441 22.2493 131.324 21.8807 131.324 21.47C131.324 20.8073 131.595 20.2847 132.136 19.902C132.678 19.51 133.396 19.244 134.292 19.104L136.042 18.838V18.642C136.042 18.306 135.972 18.0493 135.832 17.872C135.692 17.6947 135.436 17.606 135.062 17.606C134.801 17.606 134.586 17.6573 134.418 17.76C134.26 17.8627 134.134 18.0027 134.04 18.18C133.956 18.3013 133.84 18.362 133.69 18.362H132.122C132.02 18.362 131.94 18.334 131.884 18.278C131.828 18.2127 131.805 18.138 131.814 18.054C131.814 17.886 131.875 17.6947 131.996 17.48C132.127 17.256 132.323 17.0367 132.584 16.822C132.846 16.6073 133.182 16.43 133.592 16.29C134.003 16.15 134.498 16.08 135.076 16.08C135.683 16.08 136.201 16.15 136.63 16.29C137.06 16.43 137.405 16.626 137.666 16.878C137.937 17.13 138.138 17.4287 138.268 17.774C138.399 18.11 138.464 18.4833 138.464 18.894V23.15C138.464 23.2527 138.427 23.3367 138.352 23.402C138.287 23.4673 138.208 23.5 138.114 23.5H136.49C136.388 23.5 136.304 23.4673 136.238 23.402C136.173 23.3367 136.14 23.2527 136.14 23.15V22.66C136.019 22.8373 135.856 23.0007 135.65 23.15C135.445 23.2993 135.202 23.416 134.922 23.5C134.652 23.5933 134.334 23.64 133.97 23.64ZM134.628 22.044C134.899 22.044 135.142 21.988 135.356 21.876C135.58 21.7547 135.753 21.5727 135.874 21.33C136.005 21.078 136.07 20.7653 136.07 20.392V20.196L134.88 20.406C134.442 20.4807 134.12 20.5973 133.914 20.756C133.718 20.9053 133.62 21.0827 133.62 21.288C133.62 21.4467 133.667 21.582 133.76 21.694C133.854 21.806 133.975 21.8947 134.124 21.96C134.274 22.016 134.442 22.044 134.628 22.044ZM143.65 23.5C143.053 23.5 142.535 23.4067 142.096 23.22C141.667 23.024 141.336 22.7253 141.102 22.324C140.869 21.9133 140.752 21.386 140.752 20.742V18.054H139.66C139.558 18.054 139.469 18.0213 139.394 17.956C139.329 17.8907 139.296 17.8067 139.296 17.704V16.57C139.296 16.4673 139.329 16.3833 139.394 16.318C139.469 16.2527 139.558 16.22 139.66 16.22H140.752V13.91C140.752 13.8073 140.785 13.7233 140.85 13.658C140.925 13.5927 141.009 13.56 141.102 13.56H142.726C142.829 13.56 142.913 13.5927 142.978 13.658C143.044 13.7233 143.076 13.8073 143.076 13.91V16.22H144.826C144.929 16.22 145.013 16.2527 145.078 16.318C145.144 16.3833 145.176 16.4673 145.176 16.57V17.704C145.176 17.8067 145.144 17.8907 145.078 17.956C145.013 18.0213 144.929 18.054 144.826 18.054H143.076V20.546C143.076 20.8633 143.137 21.1153 143.258 21.302C143.38 21.4887 143.585 21.582 143.874 21.582H144.952C145.055 21.582 145.139 21.6147 145.204 21.68C145.27 21.7453 145.302 21.8293 145.302 21.932V23.15C145.302 23.2527 145.27 23.3367 145.204 23.402C145.139 23.4673 145.055 23.5 144.952 23.5H143.65ZM146.749 23.5C146.646 23.5 146.562 23.4673 146.497 23.402C146.431 23.3367 146.399 23.2527 146.399 23.15V16.57C146.399 16.4673 146.431 16.3833 146.497 16.318C146.562 16.2527 146.646 16.22 146.749 16.22H148.401C148.494 16.22 148.573 16.2527 148.639 16.318C148.713 16.3833 148.751 16.4673 148.751 16.57V23.15C148.751 23.2527 148.713 23.3367 148.639 23.402C148.573 23.4673 148.494 23.5 148.401 23.5H146.749ZM146.735 15.17C146.632 15.17 146.548 15.1373 146.483 15.072C146.417 15.0067 146.385 14.9227 146.385 14.82V13.574C146.385 13.4713 146.417 13.3873 146.483 13.322C146.548 13.2473 146.632 13.21 146.735 13.21H148.401C148.503 13.21 148.587 13.2473 148.653 13.322C148.727 13.3873 148.765 13.4713 148.765 13.574V14.82C148.765 14.9227 148.727 15.0067 148.653 15.072C148.587 15.1373 148.503 15.17 148.401 15.17H146.735ZM153.84 23.64C153.056 23.64 152.393 23.514 151.852 23.262C151.32 23.01 150.909 22.6507 150.62 22.184C150.34 21.708 150.181 21.1433 150.144 20.49C150.135 20.3033 150.13 20.0933 150.13 19.86C150.13 19.6173 150.135 19.4073 150.144 19.23C150.181 18.5673 150.349 18.0027 150.648 17.536C150.947 17.0693 151.362 16.71 151.894 16.458C152.435 16.206 153.084 16.08 153.84 16.08C154.605 16.08 155.254 16.206 155.786 16.458C156.327 16.71 156.747 17.0693 157.046 17.536C157.345 18.0027 157.513 18.5673 157.55 19.23C157.559 19.4073 157.564 19.6173 157.564 19.86C157.564 20.0933 157.559 20.3033 157.55 20.49C157.513 21.1433 157.349 21.708 157.06 22.184C156.78 22.6507 156.369 23.01 155.828 23.262C155.296 23.514 154.633 23.64 153.84 23.64ZM153.84 21.932C154.26 21.932 154.563 21.806 154.75 21.554C154.946 21.302 155.058 20.924 155.086 20.42C155.095 20.28 155.1 20.0933 155.1 19.86C155.1 19.6267 155.095 19.44 155.086 19.3C155.058 18.8053 154.946 18.432 154.75 18.18C154.563 17.9187 154.26 17.788 153.84 17.788C153.429 17.788 153.126 17.9187 152.93 18.18C152.734 18.432 152.627 18.8053 152.608 19.3C152.599 19.44 152.594 19.6267 152.594 19.86C152.594 20.0933 152.599 20.28 152.608 20.42C152.627 20.924 152.734 21.302 152.93 21.554C153.126 21.806 153.429 21.932 153.84 21.932ZM159.228 23.5C159.125 23.5 159.041 23.4673 158.976 23.402C158.911 23.3367 158.878 23.2527 158.878 23.15V16.57C158.878 16.4673 158.911 16.3833 158.976 16.318C159.041 16.2527 159.125 16.22 159.228 16.22H160.838C160.941 16.22 161.025 16.2527 161.09 16.318C161.155 16.3833 161.188 16.4673 161.188 16.57V17.102C161.431 16.8127 161.748 16.57 162.14 16.374C162.532 16.178 162.994 16.08 163.526 16.08C164.067 16.08 164.543 16.2013 164.954 16.444C165.374 16.6867 165.701 17.046 165.934 17.522C166.177 17.9887 166.298 18.5627 166.298 19.244V23.15C166.298 23.2527 166.261 23.3367 166.186 23.402C166.121 23.4673 166.041 23.5 165.948 23.5H164.184C164.091 23.5 164.007 23.4673 163.932 23.402C163.867 23.3367 163.834 23.2527 163.834 23.15V19.328C163.834 18.8893 163.727 18.5533 163.512 18.32C163.307 18.0773 162.999 17.956 162.588 17.956C162.205 17.956 161.897 18.0773 161.664 18.32C161.44 18.5533 161.328 18.8893 161.328 19.328V23.15C161.328 23.2527 161.291 23.3367 161.216 23.402C161.151 23.4673 161.071 23.5 160.978 23.5H159.228ZM170.793 23.64C170.187 23.64 169.669 23.5747 169.239 23.444C168.819 23.304 168.474 23.136 168.203 22.94C167.942 22.744 167.746 22.5433 167.615 22.338C167.485 22.1233 167.415 21.9413 167.405 21.792C167.396 21.6893 167.429 21.6053 167.503 21.54C167.578 21.4653 167.657 21.428 167.741 21.428H169.337C169.365 21.428 169.389 21.4327 169.407 21.442C169.426 21.4513 169.454 21.47 169.491 21.498C169.613 21.5633 169.734 21.6473 169.855 21.75C169.977 21.8433 170.117 21.9273 170.275 22.002C170.434 22.0767 170.625 22.114 170.849 22.114C171.111 22.114 171.33 22.0627 171.507 21.96C171.685 21.8573 171.773 21.7033 171.773 21.498C171.773 21.3487 171.731 21.2273 171.647 21.134C171.563 21.0313 171.391 20.9333 171.129 20.84C170.877 20.7467 170.495 20.6533 169.981 20.56C169.496 20.448 169.071 20.3033 168.707 20.126C168.343 19.9393 168.063 19.7013 167.867 19.412C167.671 19.1133 167.573 18.754 167.573 18.334C167.573 17.9607 167.695 17.6013 167.937 17.256C168.18 16.9107 168.535 16.6307 169.001 16.416C169.468 16.192 170.042 16.08 170.723 16.08C171.265 16.08 171.731 16.1453 172.123 16.276C172.525 16.3973 172.861 16.556 173.131 16.752C173.411 16.948 173.621 17.1487 173.761 17.354C173.901 17.5593 173.976 17.746 173.985 17.914C173.995 18.0073 173.967 18.0913 173.901 18.166C173.836 18.2313 173.761 18.264 173.677 18.264H172.221C172.184 18.264 172.147 18.2593 172.109 18.25C172.072 18.2313 172.039 18.2127 172.011 18.194C171.899 18.138 171.787 18.0633 171.675 17.97C171.563 17.8767 171.433 17.7927 171.283 17.718C171.134 17.6433 170.947 17.606 170.723 17.606C170.471 17.606 170.275 17.662 170.135 17.774C169.995 17.886 169.925 18.0307 169.925 18.208C169.925 18.3293 169.963 18.4413 170.037 18.544C170.121 18.6467 170.285 18.74 170.527 18.824C170.779 18.908 171.167 19.0013 171.689 19.104C172.333 19.2067 172.847 19.3747 173.229 19.608C173.612 19.832 173.883 20.098 174.041 20.406C174.2 20.7047 174.279 21.022 174.279 21.358C174.279 21.806 174.144 22.2027 173.873 22.548C173.612 22.8933 173.22 23.164 172.697 23.36C172.175 23.5467 171.54 23.64 170.793 23.64Z" fill="#455A64"/>
<rect y="20" width="30" height="10" rx="5" fill="#d9d9d9"/>
<rect y="8" width="30" height="10" rx="5" fill="#47B2E4"/>
</svg>
