<svg width="42" height="41" viewBox="0 0 42 41" fill="none" xmlns="http://www.w3.org/2000/svg">
<rect opacity="0.5" x="0.992188" y="0.82666" width="40.0945" height="40.0945" rx="12.6614" fill="#FFEAF2"/>
<g clip-path="url(#clip0_615_639)">
<g filter="url(#filter0_dii_615_639)">
<path d="M26.3612 21.2905C27.3324 21.2905 28.1402 22.0883 27.9145 23.033C27.7091 23.8923 27.3523 24.7132 26.8563 25.4555C26.0325 26.6884 24.8617 27.6493 23.4918 28.2167C22.1219 28.7841 20.6146 28.9326 19.1603 28.6433C17.706 28.354 16.3702 27.64 15.3218 26.5916C14.2733 25.5431 13.5593 24.2073 13.27 22.753C12.9808 21.2988 13.1292 19.7914 13.6966 18.4215C14.2641 17.0517 15.225 15.8808 16.4578 15.057C17.2002 14.561 18.021 14.2043 18.8804 13.9989C19.825 13.7732 20.6229 14.5809 20.6229 15.5521V19.5319C20.6229 20.5032 21.4102 21.2905 22.3814 21.2905H26.3612Z" fill="#E9001E"/>
<path d="M21.8849 14.7351C21.9575 13.7666 22.8135 13.0208 23.7386 13.3165C24.8579 13.6743 25.8855 14.2929 26.7319 15.1313C27.5783 15.9698 28.2066 16.9915 28.5749 18.1074C28.8794 19.0296 28.1417 19.8927 27.1739 19.9744L23.5118 20.2838C22.4333 20.3749 21.5292 19.4794 21.6101 18.4L21.8849 14.7351Z" fill="#E9001E"/>
</g>
</g>
<defs>
<filter id="filter0_dii_615_639" x="-29.0787" y="-7.85139" width="99.9279" height="99.9458" filterUnits="userSpaceOnUse" color-interpolation-filters="sRGB">
<feFlood flood-opacity="0" result="BackgroundImageFix"/>
<feColorMatrix in="SourceAlpha" type="matrix" values="0 0 0 0 0 0 0 0 0 0 0 0 0 0 0 0 0 0 127 0" result="hardAlpha"/>
<feOffset dy="21.1024"/>
<feGaussianBlur stdDeviation="21.1024"/>
<feComposite in2="hardAlpha" operator="out"/>
<feColorMatrix type="matrix" values="0 0 0 0 0.8 0 0 0 0 0.929412 0 0 0 0 0.980392 0 0 0 1 0"/>
<feBlend mode="normal" in2="BackgroundImageFix" result="effect1_dropShadow_615_639"/>
<feBlend mode="normal" in="SourceGraphic" in2="effect1_dropShadow_615_639" result="shape"/>
<feColorMatrix in="SourceAlpha" type="matrix" values="0 0 0 0 0 0 0 0 0 0 0 0 0 0 0 0 0 0 127 0" result="hardAlpha"/>
<feOffset dx="3.16535" dy="1.05512"/>
<feGaussianBlur stdDeviation="7.91339"/>
<feComposite in2="hardAlpha" operator="arithmetic" k2="-1" k3="1"/>
<feColorMatrix type="matrix" values="0 0 0 0 1 0 0 0 0 1 0 0 0 0 1 0 0 0 0.5 0"/>
<feBlend mode="overlay" in2="shape" result="effect2_innerShadow_615_639"/>
<feColorMatrix in="SourceAlpha" type="matrix" values="0 0 0 0 0 0 0 0 0 0 0 0 0 0 0 0 0 0 127 0" result="hardAlpha"/>
<feOffset dy="-3.16535"/>
<feGaussianBlur stdDeviation="5.27559"/>
<feComposite in2="hardAlpha" operator="arithmetic" k2="-1" k3="1"/>
<feColorMatrix type="matrix" values="0 0 0 0 0 0 0 0 0 0 0 0 0 0 0 0 0 0 0.37 0"/>
<feBlend mode="overlay" in2="effect2_innerShadow_615_639" result="effect3_innerShadow_615_639"/>
</filter>
<clipPath id="clip0_615_639">
<rect width="21.1024" height="21.1024" fill="white" transform="translate(10.4882 10.3228)"/>
</clipPath>
</defs>
</svg>
