<svg width="26" height="25" viewBox="0 0 26 25" fill="none" xmlns="http://www.w3.org/2000/svg">
<g clip-path="url(#clip0_1617_845)">
<path d="M23.738 14.467L25.7898 5.43922C25.938 4.7874 25.4425 4.16669 24.7741 4.16669H7.72623L7.3284 2.22182C7.22927 1.73705 6.80271 1.38892 6.30787 1.38892H1.85783C1.28252 1.38892 0.816162 1.85528 0.816162 2.43058V3.12503C0.816162 3.70033 1.28252 4.16669 1.85783 4.16669H4.89094L7.9399 19.0727C7.21048 19.4922 6.71894 20.2788 6.71894 21.1806C6.71894 22.5229 7.80713 23.6111 9.1495 23.6111C10.4919 23.6111 11.5801 22.5229 11.5801 21.1806C11.5801 20.5003 11.3002 19.8857 10.8498 19.4445H19.9491C19.4988 19.8857 19.2189 20.5003 19.2189 21.1806C19.2189 22.5229 20.3071 23.6111 21.6495 23.6111C22.9919 23.6111 24.08 22.5229 24.08 21.1806C24.08 20.2183 23.5207 19.3867 22.7094 18.9929L22.9489 17.9392C23.097 17.2874 22.6016 16.6667 21.9331 16.6667H10.283L9.99897 15.2778H22.7223C23.2087 15.2778 23.6303 14.9413 23.738 14.467Z" fill="#29166F"/>
</g>
<defs>
<clipPath id="clip0_1617_845">
<rect width="25" height="25" fill="white" transform="translate(0.816162)"/>
</clipPath>
</defs>
</svg>
