<svg width="26" height="25" viewBox="0 0 26 25" fill="none" xmlns="http://www.w3.org/2000/svg">
<g clip-path="url(#clip0_1617_849)">
<path d="M25.0349 6.25001V7.03126C25.0349 7.13486 24.9938 7.23422 24.9205 7.30748C24.8472 7.38073 24.7479 7.42189 24.6443 7.42189H23.4724V8.00783C23.4724 8.33141 23.2101 8.59376 22.8865 8.59376H3.74585C3.42227 8.59376 3.15991 8.33141 3.15991 8.00783V7.42189H1.98804C1.88444 7.42189 1.78508 7.38073 1.71182 7.30748C1.63857 7.23422 1.59741 7.13486 1.59741 7.03126V6.25001C1.59741 6.17273 1.62034 6.09719 1.66328 6.03294C1.70623 5.96869 1.76726 5.91863 1.83867 5.88908L13.1668 1.5922C13.2624 1.5526 13.3699 1.5526 13.4655 1.5922L24.7937 5.88908C24.8651 5.91863 24.9261 5.96869 24.969 6.03294C25.012 6.09719 25.0349 6.17273 25.0349 6.25001ZM23.863 21.0938H2.76929C2.12207 21.0938 1.59741 21.6184 1.59741 22.2656V23.0469C1.59741 23.1505 1.63857 23.2498 1.71182 23.3231C1.78508 23.3964 1.88444 23.4375 1.98804 23.4375H24.6443C24.7479 23.4375 24.8472 23.3964 24.9205 23.3231C24.9938 23.2498 25.0349 23.1505 25.0349 23.0469V22.2656C25.0349 21.6184 24.5103 21.0938 23.863 21.0938ZM5.50366 9.37501V18.75H3.74585C3.42227 18.75 3.15991 19.0124 3.15991 19.336V20.3125H23.4724V19.336C23.4724 19.0124 23.2101 18.75 22.8865 18.75H21.1287V9.37501H18.0037V18.75H14.8787V9.37501H11.7537V18.75H8.62866V9.37501H5.50366Z" fill="#29166F"/>
</g>
<defs>
<clipPath id="clip0_1617_849">
<rect width="25" height="25" fill="white" transform="translate(0.816162)"/>
</clipPath>
</defs>
</svg>
